<?xml version="1.0" standalone="no"?>
<!DOCTYPE svg PUBLIC "-//W3C//DTD SVG 20010904//EN"
 "http://www.w3.org/TR/2001/REC-SVG-20010904/DTD/svg10.dtd">
<svg version="1.0" xmlns="http://www.w3.org/2000/svg"
 width="326.000000pt" height="189.000000pt" viewBox="0 0 326.000000 189.000000"
 preserveAspectRatio="xMidYMid meet">
<metadata>
Created by potrace 1.11, written by Peter Selinger 2001-2013
</metadata>
<g transform="translate(0.000000,189.000000) scale(0.100000,-0.100000)"
fill="#000000" stroke="none">
<path d="M20 950 l0 -910 895 0 895 0 0 786 0 786 -127 123 -128 124 -72 1
-73 0 -2 -247 -3 -248 -490 0 -490 0 -3 248 -2 247 -200 0 -200 0 0 -910z
m1600 -380 l0 -380 -705 0 -705 0 0 380 0 380 705 0 705 0 0 -380z"/>
<path d="M350 780 l0 -30 565 0 565 0 0 30 0 30 -565 0 -565 0 0 -30z"/>
<path d="M350 575 l0 -25 565 0 565 0 0 25 0 25 -565 0 -565 0 0 -25z"/>
<path d="M350 375 l0 -25 565 0 565 0 0 25 0 25 -565 0 -565 0 0 -25z"/>
<path d="M1100 1615 l0 -175 75 0 75 0 0 175 0 175 -75 0 -75 0 0 -175z"/>
<path d="M2577 1482 l-57 -57 237 -237 238 -238 -238 -238 -237 -237 58 -58
57 -57 297 298 296 297 -297 292 -298 292 -56 -57z"/>
</g>
</svg>
