<?xml version="1.0" encoding="UTF-8" standalone="no"?>
<!-- Created with Inkscape (http://www.inkscape.org/) -->

<svg
   xmlns:dc="http://purl.org/dc/elements/1.1/"
   xmlns:cc="http://creativecommons.org/ns#"
   xmlns:rdf="http://www.w3.org/1999/02/22-rdf-syntax-ns#"
   xmlns:svg="http://www.w3.org/2000/svg"
   xmlns="http://www.w3.org/2000/svg"
   xmlns:sodipodi="http://sodipodi.sourceforge.net/DTD/sodipodi-0.dtd"
   xmlns:inkscape="http://www.inkscape.org/namespaces/inkscape"
   width="800"
   height="450"
   id="svg2"
   version="1.1"
   inkscape:version="0.48.0 r9654"
   sodipodi:docname="noimage_16-9.svg">
  <defs
     id="defs4" />
  <sodipodi:namedview
     id="base"
     pagecolor="#ffffff"
     bordercolor="#666666"
     borderopacity="1.0"
     inkscape:pageopacity="0.0"
     inkscape:pageshadow="2"
     inkscape:zoom="1.23"
     inkscape:cx="396.18804"
     inkscape:cy="195.63298"
     inkscape:document-units="px"
     inkscape:current-layer="layer1"
     showgrid="false"
     inkscape:window-width="1233"
     inkscape:window-height="896"
     inkscape:window-x="590"
     inkscape:window-y="359"
     inkscape:window-maximized="0" />
  <metadata
     id="metadata7">
    <rdf:RDF>
      <cc:Work
         rdf:about="">
        <dc:format>image/svg+xml</dc:format>
        <dc:type
           rdf:resource="http://purl.org/dc/dcmitype/StillImage" />
        <dc:title></dc:title>
      </cc:Work>
    </rdf:RDF>
  </metadata>
  <g
     inkscape:label="Layer 1"
     inkscape:groupmode="layer"
     id="layer1"
     transform="translate(0,-602.36218)">
    <rect
       style="fill:#f2f2f2;fill-opacity:1;fill-rule:evenodd;stroke:#c4c4c4;stroke-opacity:1;stroke-width:5;stroke-miterlimit:4;stroke-dasharray:none"
       id="rect2989"
       width="800"
       height="450"
       x="0"
       y="602.36218" />
    <g
       style="font-size:124.39652252px;font-style:normal;font-weight:normal;line-height:125%;letter-spacing:0px;word-spacing:0px;fill:#808080;fill-opacity:1;stroke:none;font-family:Sans"
       id="text2985"
       transform="translate(-2e-6,-9.3560274)">
      <path
         d="m 93.807204,791.31469 16.521416,0 40.2102,75.86487 0,-75.86487 11.90514,0 0,90.68555 -16.52142,0 -40.2102,-75.86487 0,75.86487 -11.905136,0 0,-90.68555"
         style="font-variant:normal;font-stretch:normal;fill:#808080;font-family:Sans;-inkscape-font-specification:Sans"
         id="path3792"
         inkscape:connector-curvature="0" />
      <path
         d="m 223.67037,799.63614 c -8.90865,8e-5 -15.99503,3.32056 -21.25917,9.96144 -5.22371,6.64103 -7.83555,15.69135 -7.83553,27.151 -2e-5,11.41925 2.61182,20.44932 7.83553,27.09026 5.26414,6.64097 12.35052,9.96145 21.25917,9.96144 8.90855,10e-6 15.95444,-3.32047 21.13769,-9.96144 5.22361,-6.64094 7.83544,-15.67101 7.83552,-27.09026 -8e-5,-11.45965 -2.61191,-20.50997 -7.83552,-27.151 -5.18325,-6.64088 -12.22914,-9.96136 -21.13769,-9.96144 m 0,-9.96144 c 12.71495,9e-5 22.87884,4.27217 30.49172,12.81624 7.61273,8.50374 11.41913,19.92294 11.41922,34.25764 -9e-5,14.29429 -3.80649,25.71349 -11.41922,34.25764 -7.61288,8.50367 -17.77677,12.7555 -30.49172,12.7555 -12.75554,0 -22.95993,-4.25183 -30.61321,-12.7555 -7.61282,-8.50365 -11.41922,-19.92285 -11.41921,-34.25764 -1e-5,-14.3347 3.80639,-25.7539 11.41921,-34.25764 7.65328,-8.54407 17.85767,-12.81615 30.61321,-12.81624"
         style="font-variant:normal;font-stretch:normal;fill:#808080;font-family:Sans;-inkscape-font-specification:Sans"
         id="path3794"
         inkscape:connector-curvature="0" />
      <path
         d="m 324.3781,791.31469 12.26958,0 0,90.68555 -12.26958,0 0,-90.68555"
         style="font-variant:normal;font-stretch:normal;fill:#808080;font-family:Sans;-inkscape-font-specification:Sans"
         id="path3796"
         inkscape:connector-curvature="0" />
      <path
         d="m 361.06535,791.31469 18.28289,0 23.14213,61.71234 23.2636,-61.71234 18.28289,0 0,90.68555 -11.96588,0 0,-79.63078 -23.38508,62.19826 -12.33032,0 -23.38509,-62.19826 0,79.63078 -11.90514,0 0,-90.68555"
         style="font-variant:normal;font-stretch:normal;fill:#808080;font-family:Sans;-inkscape-font-specification:Sans"
         id="path3798"
         inkscape:connector-curvature="0" />
      <path
         d="m 498.76405,803.40205 -16.6429,45.13018 33.34653,0 -16.70363,-45.13018 m -6.92442,-12.08736 13.90957,0 34.56134,90.68555 -12.7555,0 -8.26071,-23.2636 -40.87835,0 -8.2607,23.2636 -12.93773,0 34.62208,-90.68555"
         style="font-variant:normal;font-stretch:normal;fill:#808080;font-family:Sans;-inkscape-font-specification:Sans"
         id="path3800"
         inkscape:connector-curvature="0" />
      <path
         d="m 613.1384,869.06252 0,-24.35694 -20.04436,0 0,-10.08292 32.19246,0 0,38.93466 c -4.73784,3.36097 -9.96152,5.91207 -15.67105,7.6533 -5.70967,1.70073 -11.80396,2.5511 -18.28289,2.5511 -14.17282,0 -25.26807,-4.13035 -33.28579,-12.39106 -7.97726,-8.30118 -11.96588,-19.84186 -11.96587,-34.62208 -1e-5,-14.82062 3.98861,-26.3613 11.96587,-34.62208 8.01772,-8.30111 19.11297,-12.45171 33.28579,-12.4518 5.91202,9e-5 11.52038,0.72898 16.82512,2.18666 5.34509,1.45786 10.26506,3.60402 14.75994,6.43849 l 0,13.0592 c -4.53537,-3.84682 -9.35411,-6.74211 -14.45624,-8.68589 -5.10227,-1.94361 -10.46767,-2.91546 -16.09623,-2.91554 -11.0953,8e-5 -19.43699,3.09785 -25.02508,9.2933 -5.54766,6.19559 -8.32147,15.42814 -8.32145,27.69766 -2e-5,12.22912 2.77379,21.44142 8.32145,27.63692 5.58809,6.19554 13.92978,9.29331 25.02508,9.2933 4.33276,10e-6 8.19991,-0.36444 11.60143,-1.09333 3.4014,-0.76937 6.45867,-1.94369 9.17182,-3.52295"
         style="font-variant:normal;font-stretch:normal;fill:#808080;font-family:Sans;-inkscape-font-specification:Sans"
         id="path3802"
         inkscape:connector-curvature="0" />
      <path
         d="m 647.76045,791.31469 57.33902,0 0,10.32589 -45.06944,0 0,26.84729 43.18649,0 0,10.32589 -43.18649,0 0,32.8606 46.16277,0 0,10.32588 -58.43235,0 0,-90.68555"
         style="font-variant:normal;font-stretch:normal;fill:#808080;font-family:Sans;-inkscape-font-specification:Sans"
         id="path3804"
         inkscape:connector-curvature="0" />
    </g>
  </g>
</svg>
